<svg width="546" height="399" fill="none" xmlns="http://www.w3.org/2000/svg">
  <g clip-path="url(#clip0)">
    <path d="M387.082 143.92l-5.788-20.15c-.723-2.514-3.478-4.293-6.652-4.293h-65.41c-3.174 0-5.93 1.779-6.652 4.293l-5.788 20.15h90.29z" fill="#D3EFFB"/>
    <path d="M381.294 123.77c-.723-2.514-3.478-4.293-6.652-4.293h-6.619l1.89 6.581c.908 3.163-2.042 6.189-6.035 6.189h-63.733l-3.353 11.673h90.29l-5.788-20.15z" fill="#B1E4F9"/>
    <path d="M387.082 145.419h-90.29c-.562 0-1.094-.209-1.444-.568-.35-.358-.479-.827-.351-1.273l5.788-20.149c.921-3.21 4.395-5.451 8.447-5.451h65.41c4.052 0 7.525 2.241 8.448 5.451l5.786 20.149c.129.446-.001.915-.35 1.273-.35.359-.882.568-1.444.568zm-87.966-2.999h85.642l-5.259-18.309c-.53-1.845-2.528-3.134-4.857-3.134h-65.41c-2.329 0-4.327 1.289-4.857 3.134l-5.259 18.309z" fill="#AC80DD"/>
    <path d="M311.484 183.349h-10.929c-1.491 0-2.7-.983-2.7-2.196V172.4h16.328v8.753c0 1.213-1.208 2.196-2.699 2.196zm71.835 0h-10.928c-1.491 0-2.701-.983-2.701-2.196V172.4h16.328v8.753c0 1.213-1.208 2.196-2.699 2.196z" fill="#756E78"/>
    <path d="M308.881 172.4v8.504c0 1.35-1.346 2.445-3.006 2.445h5.605c1.493 0 2.703-.984 2.703-2.199v-8.75h-5.302zm71.835 0v8.504c0 1.35-1.346 2.445-3.006 2.445h5.605c1.493 0 2.703-.984 2.703-2.199v-8.75h-5.302z" fill="#665E66"/>
    <path d="M386.441 174.859h-89.008c-5.964 0-10.799-3.933-10.799-8.785v-16.595c0-5.01 4.993-9.071 11.152-9.071h88.547c6.024 0 10.907 3.972 10.907 8.872v16.794c0 4.852-4.835 8.785-10.799 8.785z" fill="#BC95E2"/>
    <path d="M387.117 140.433c.018.216.032.432.032.651v16.768c0 4.859-4.842 8.798-10.815 8.798h-88.976c-.236 0-.468-.008-.699-.021.36 4.594 5.052 8.231 10.79 8.231h88.976c5.973 0 10.815-3.939 10.815-8.799v-16.767c0-4.689-4.464-8.527-10.123-8.861z" fill="#AC80DD"/>
    <path d="M388.702 151.558h-18.07c-1.417 0-2.567.935-2.567 2.089v1.129c0 4.028 4.014 7.293 8.965 7.293h11.672c1.509 0 2.732-.996 2.732-2.222v-6.066c0-1.228-1.223-2.223-2.732-2.223zm-74.759.001h-18.07c-1.509 0-2.733.995-2.733 2.223v6.066c0 1.226 1.224 2.222 2.733 2.222h11.671c4.952 0 8.966-3.265 8.966-7.293v-1.129c-.001-1.154-1.15-2.089-2.567-2.089z" fill="#F1F4F6"/>
    <path d="M385.983 151.558v2.313c0 2.368-2.359 4.286-5.269 4.286h-9.135c-.939 0-1.844-.117-2.695-.336 1.419 2.507 4.532 4.248 8.146 4.248h11.671c1.509 0 2.733-.996 2.733-2.222v-6.066c0-1.228-1.223-2.223-2.733-2.223h-2.718zm-72.04.001h-2.926c-.43 3.702-4.26 6.599-8.924 6.599h-8.953v1.69c0 1.226 1.224 2.222 2.733 2.222h11.671c4.952 0 8.966-3.265 8.966-7.293v-1.129c-.001-1.154-1.15-2.089-2.567-2.089z" fill="#DFEAEF"/>
    <path d="M351.198 164.787h-18.522c-2.558 0-4.631-1.687-4.631-3.768v-.011c0-2.08 2.073-3.766 4.631-3.766h18.522c2.558 0 4.632 1.686 4.632 3.766v.011c0 2.081-2.074 3.768-4.632 3.768z" fill="#F1F4F6"/>
    <path d="M352.074 157.311c.056.233.087.473.087.718 0 2.084-2.077 3.774-4.638 3.774h-18.509c-.302 0-.597-.026-.883-.071.413 1.74 2.292 3.055 4.551 3.055h18.509c2.562 0 4.639-1.689 4.639-3.773 0-1.837-1.617-3.367-3.756-3.703z" fill="#DFEAEF"/>
    <path d="M368.277 61.603l-3.631-15.896c-.453-1.983-2.182-3.386-4.173-3.386h-41.038c-1.991 0-3.72 1.403-4.173 3.386l-3.631 15.896h56.646z" fill="#D3EFFB"/>
    <path d="M364.646 45.707c-.453-1.983-2.182-3.386-4.173-3.386h-4.153l1.186 5.191c.57 2.496-1.281 4.883-3.787 4.883h-39.985l-2.103 9.208h56.646l-3.631-15.896z" fill="#B1E4F9"/>
    <path d="M368.277 62.786h-56.646c-.353 0-.687-.165-.906-.448a1.203 1.203 0 01-.221-1.004l3.632-15.896c.578-2.532 2.757-4.3 5.299-4.3h41.038c2.542 0 4.721 1.768 5.3 4.3l3.63 15.896c.081.351 0 .721-.219 1.004a1.15 1.15 0 01-.907.448zm-55.188-2.366h53.731l-3.3-14.444c-.332-1.455-1.586-2.472-3.047-2.472h-41.038c-1.461 0-2.714 1.017-3.047 2.473l-3.299 14.443z" fill="#DB3939"/>
    <path d="M320.848 92.709h-6.856c-.936 0-1.694-.776-1.694-1.733v-6.905h10.244v6.905c0 .957-.759 1.733-1.694 1.733zm45.069 0h-6.856c-.936 0-1.695-.776-1.695-1.733v-6.905h10.244v6.905c0 .957-.758 1.733-1.693 1.733z" fill="#756E78"/>
    <path d="M319.215 84.071v6.709c0 1.065-.844 1.929-1.886 1.929h3.516c.937 0 1.697-.777 1.697-1.735V84.07h-3.327zm45.068 0v6.709c0 1.065-.844 1.929-1.885 1.929h3.516c.937 0 1.696-.777 1.696-1.735V84.07h-3.327z" fill="#665E66"/>
    <path d="M367.875 86.01h-55.842c-3.742 0-6.776-3.102-6.776-6.93V65.99c0-3.953 3.133-7.157 6.998-7.157h55.553c3.779 0 6.843 3.134 6.843 7V79.08c0 3.828-3.034 6.93-6.776 6.93z" fill="#DB3939"/>
    <path d="M368.299 58.853c.012.17.021.34.021.513v13.228c0 3.834-3.038 6.94-6.786 6.94h-55.822a6.63 6.63 0 01-.439-.015c.226 3.624 3.17 6.492 6.77 6.492h55.822c3.748 0 6.786-3.107 6.786-6.94V65.843c0-3.7-2.801-6.727-6.352-6.99z" fill="#DB3939"/>
    <path d="M369.294 67.63h-11.337c-.889 0-1.61.737-1.61 1.647v.89c0 3.178 2.518 5.754 5.624 5.754h7.323c.947 0 1.714-.785 1.714-1.753v-4.785c0-.969-.767-1.754-1.714-1.754zm-46.903 0h-11.337c-.947 0-1.714.785-1.714 1.754v4.785c0 .968.767 1.753 1.714 1.753h7.323c3.106 0 5.624-2.576 5.624-5.754v-.89c0-.91-.721-1.648-1.61-1.648z" fill="#000"/>
    <path d="M367.588 67.63v1.824c0 1.868-1.48 3.381-3.305 3.381h-5.732a5.49 5.49 0 01-1.691-.265c.89 1.978 2.844 3.351 5.111 3.351h7.322c.947 0 1.715-.785 1.715-1.753v-4.785c0-.969-.767-1.754-1.715-1.754h-1.705zm-45.197 0h-1.836c-.27 2.92-2.673 5.206-5.599 5.206h-5.616v1.333c0 .968.767 1.753 1.714 1.753h7.323c3.106 0 5.624-2.576 5.624-5.754v-.89c0-.91-.721-1.648-1.61-1.648z" fill="#06B1FF"/>
    <path d="M345.765 78.065h-11.621c-1.605 0-2.906-1.33-2.906-2.972v-.009c0-1.64 1.301-2.971 2.906-2.971h11.621c1.604 0 2.905 1.33 2.905 2.971v.009c0 1.641-1.301 2.972-2.905 2.972z" fill="#F1F4F6"/>
    <path d="M346.314 72.168c.035.183.055.373.055.566 0 1.644-1.303 2.977-2.91 2.977h-11.613a2.86 2.86 0 01-.554-.055c.259 1.372 1.439 2.409 2.856 2.409h11.612c1.607 0 2.91-1.332 2.91-2.976 0-1.45-1.014-2.656-2.356-2.921z" fill="#DFEAEF"/>
    <path d="M246.103 139.93l-4.608-17.463c-.575-2.179-2.769-3.72-5.296-3.72h-52.078c-2.527 0-4.721 1.541-5.296 3.72l-4.608 17.463h71.886z" fill="#D3EFFB"/>
    <path d="M241.495 122.467c-.575-2.179-2.769-3.72-5.296-3.72h-5.27l1.505 5.703c.723 2.742-1.626 5.364-4.805 5.364h-50.743l-2.669 10.116h71.886l-4.608-17.463z" fill="#B1E4F9"/>
    <path d="M246.103 141.23h-71.886c-.448 0-.872-.182-1.15-.492a1.188 1.188 0 01-.28-1.103l4.608-17.463c.734-2.782 3.5-4.725 6.726-4.725h52.078c3.226 0 5.992 1.943 6.726 4.724l4.607 17.464c.102.386-.001.792-.279 1.103a1.55 1.55 0 01-1.15.492zm-70.036-2.599h68.186l-4.187-15.868c-.422-1.599-2.012-2.716-3.867-2.716h-52.078c-1.855 0-3.445 1.117-3.867 2.716l-4.187 15.868z" fill="#9BE295"/>
    <path d="M185.914 174.103h-8.701c-1.187 0-2.15-.853-2.15-1.904v-7.586h13v7.586c0 1.051-.962 1.904-2.149 1.904zm57.193 0h-8.7c-1.188 0-2.15-.853-2.15-1.904v-7.586h13v7.586c0 1.051-.962 1.904-2.15 1.904z" fill="#756E78"/>
    <path d="M183.841 164.613v7.37c0 1.171-1.071 2.12-2.393 2.12h4.462c1.189 0 2.153-.854 2.153-1.906v-7.584h-4.222zm57.194 0v7.37c0 1.171-1.071 2.12-2.393 2.12h4.462c1.189 0 2.153-.854 2.153-1.906v-7.584h-4.222z" fill="#665E66"/>
    <path d="M245.593 166.744h-70.866c-4.749 0-8.598-3.408-8.598-7.613v-14.382c0-4.342 3.975-7.862 8.879-7.862h70.499c4.797 0 8.684 3.443 8.684 7.689v14.555c0 4.205-3.849 7.613-8.598 7.613z" fill="#9BE295"/>
    <path d="M246.131 136.909c.015.187.026.374.026.564v14.532c0 4.211-3.855 7.625-8.611 7.625h-70.841c-.187 0-.372-.007-.556-.018.287 3.981 4.022 7.133 8.591 7.133h70.84c4.756 0 8.611-3.414 8.611-7.625v-14.532c0-4.064-3.554-7.39-8.06-7.679z" fill="#9BE295"/>
    <path d="M247.394 146.55h-14.387c-1.129 0-2.044.811-2.044 1.811v.978c0 3.491 3.195 6.321 7.138 6.321h9.293c1.201 0 2.174-.863 2.174-1.926v-5.257c0-1.064-.973-1.927-2.174-1.927zm-59.522.001h-14.387c-1.202 0-2.176.863-2.176 1.927v5.257c0 1.063.974 1.926 2.176 1.926h9.292c3.943 0 7.138-2.83 7.138-6.321v-.978c0-1.001-.915-1.811-2.043-1.811z" fill="#F1F4F6"/>
    <path d="M245.229 146.55v2.005c0 2.052-1.878 3.714-4.195 3.714h-7.273a7.933 7.933 0 01-2.146-.291c1.129 2.173 3.608 3.682 6.486 3.682h9.292c1.201 0 2.175-.863 2.175-1.926v-5.257c0-1.064-.973-1.927-2.175-1.927h-2.164zm-57.357.001h-2.33c-.342 3.209-3.392 5.719-7.105 5.719h-7.128v1.465c0 1.063.974 1.926 2.176 1.926h9.292c3.943 0 7.138-2.83 7.138-6.321v-.978c0-1.001-.915-1.811-2.043-1.811z" fill="#DFEAEF"/>
    <path d="M217.534 158.015h-14.748c-2.036 0-3.687-1.462-3.687-3.265v-.01c0-1.802 1.651-3.264 3.687-3.264h14.748c2.036 0 3.687 1.462 3.687 3.264v.01c0 1.803-1.651 3.265-3.687 3.265z" fill="#F1F4F6"/>
    <path d="M218.231 151.536c.045.202.069.41.069.623 0 1.806-1.653 3.27-3.693 3.27h-14.736c-.241 0-.475-.022-.703-.061.329 1.508 1.825 2.647 3.624 2.647h14.736c2.04 0 3.693-1.463 3.693-3.269 0-1.593-1.287-2.918-2.99-3.21z" fill="#DFEAEF"/>
    <g clip-path="url(#clip1)">
      <path d="M232.11 66.023l-2.278-7.47c-.284-.932-1.395-1.6-2.682-1.612l-26.517-.24c-1.286-.012-2.41.635-2.711 1.562l-2.415 7.428 36.603.332z" fill="#D3EFFB"/>
      <path d="M229.832 58.553c-.284-.932-1.395-1.6-2.682-1.612l-2.683-.024.744 2.44c.357 1.172-.85 2.28-2.468 2.266l-25.837-.235-1.399 4.303 36.603.333-2.278-7.471z" fill="#B1E4F9"/>
      <path d="M232.105 66.578l-36.603-.332a.867.867 0 01-.584-.215c-.14-.134-.191-.308-.138-.473l2.416-7.428c.384-1.183 1.8-1.999 3.443-1.984l26.517.24c1.643.016 3.043.857 3.406 2.047l2.277 7.471c.05.165-.004.338-.147.47a.865.865 0 01-.587.204zm-35.651-1.433l34.719.316-2.069-6.789c-.208-.684-1.014-1.168-1.958-1.176l-26.517-.24c-.945-.01-1.759.46-1.98 1.14l-2.195 6.75z" fill="#AC80DD"/>
      <path d="M201.327 80.323l-4.43-.04c-.605-.006-1.091-.374-1.087-.823l.03-3.235 6.619.06-.03 3.236c-.004.448-.497.807-1.102.802zm29.122.264l-4.43-.04c-.605-.006-1.092-.374-1.087-.822l.03-3.236 6.619.06-.03 3.236c-.004.448-.498.808-1.102.802z" fill="#756E78"/>
      <path d="M200.309 76.265l-.029 3.144c-.004.5-.554.9-1.227.893l2.272.02c.606.006 1.1-.353 1.104-.803l.03-3.234-2.15-.02zm29.122.265l-.029 3.144c-.004.499-.554.898-1.227.892l2.272.021c.606.005 1.1-.354 1.104-.803l.03-3.235-2.15-.02z" fill="#665E66"/>
      <path d="M231.744 77.46l-36.084-.328c-2.418-.022-4.364-1.494-4.348-3.288l.057-6.134c.017-1.853 2.056-3.336 4.553-3.313l35.896.325c2.442.023 4.408 1.51 4.392 3.32l-.058 6.21c-.017 1.793-1.99 3.23-4.408 3.208z" fill="#BC95E2"/>
      <path d="M232.136 64.735c.007.08.012.16.011.24l-.058 6.2c-.016 1.796-1.993 3.235-4.414 3.213l-36.071-.328c-.095 0-.19-.005-.283-.01.13 1.7 2.02 3.061 4.346 3.082l36.07.328c2.422.022 4.399-1.417 4.415-3.213l.058-6.2c.016-1.733-1.781-3.168-4.074-3.312z" fill="#AC80DD"/>
      <path d="M232.74 68.854l-7.325-.067c-.575-.005-1.044.336-1.048.763l-.004.417c-.014 1.49 1.602 2.711 3.61 2.73l4.731.043c.612.005 1.111-.358 1.116-.812l.02-2.242c.004-.454-.488-.827-1.1-.832zm-30.307-.274l-7.325-.067c-.612-.006-1.112.358-1.116.812l-.021 2.242c-.004.454.489.826 1.101.832l4.731.043c2.007.018 3.646-1.174 3.66-2.663l.004-.418c.003-.426-.459-.776-1.034-.782z" fill="#F1F4F6"/>
      <path d="M231.638 68.844l-.008.855c-.008.875-.971 1.576-2.151 1.565l-3.703-.034a4.802 4.802 0 01-1.091-.134c.566.932 1.822 1.587 3.287 1.6l4.732.044c.612.005 1.111-.358 1.115-.812l.021-2.242c.004-.454-.488-.827-1.1-.832l-1.102-.01zm-29.205-.264l-1.186-.011c-.187 1.367-1.75 2.424-3.64 2.406l-3.63-.032-.006.624c-.004.454.489.826 1.101.832l4.731.043c2.007.018 3.646-1.174 3.66-2.663l.004-.418c.003-.426-.459-.776-1.034-.782z" fill="#DFEAEF"/>
      <path d="M217.491 73.606l-7.509-.068c-1.037-.01-1.872-.64-1.865-1.41l.001-.004c.007-.769.853-1.385 1.89-1.375l7.509.068c1.037.01 1.872.64 1.864 1.41v.004c-.007.769-.853 1.385-1.89 1.375z" fill="#F1F4F6"/>
      <path d="M217.872 70.846c.021.086.033.175.032.266-.007.77-.854 1.387-1.893 1.377l-7.503-.068a2.516 2.516 0 01-.358-.029c.161.645.919 1.138 1.835 1.146l7.503.068c1.039.01 1.886-.607 1.893-1.378.007-.679-.643-1.25-1.509-1.382z" fill="#DFEAEF"/>
      <path d="M279 109h13.387v17.742H279V109zm40.935-10.516h-13.387V85.177c0-7.335-9.01-13.306-20.08-13.306-11.07 0-20.081 5.971-20.081 13.306v13.307H253V85.177C253 72.95 268.015 63 286.468 63c18.453 0 33.467 9.95 33.467 22.177v13.307z" fill="red"/>
      <path d="M285.5 232C218.947 232 166 183.824 166 126S218.947 20 285.5 20 405 68.176 405 126s-52.947 106-119.5 106z" stroke="red" stroke-width="12"/>
      <path d="M319.323 152.226h-66.936c-7.383 0-13.387-3.979-13.387-8.871v-35.484c0-4.892 6.004-8.871 13.387-8.871h66.936c7.383 0 13.387 3.979 13.387 8.871v35.484c0 4.892-6.004 8.871-13.387 8.871zm-66.936-44.355v35.484h66.949l-.013-35.484h-66.936z" fill="red"/>
      <path d="M279.194 90.927h13.387v8.871h-13.387v-8.87z" fill="red"/>
    </g>
    <path d="M80.978 277h-.475l-8.262-11.988V277h-.483v-12.797h.483l8.262 11.962v-11.962h.475V277zm2.557-4.939c0-.909.173-1.723.519-2.444.351-.726.843-1.292 1.476-1.696a3.96 3.96 0 012.162-.607c.797 0 1.512.197 2.145.589.633.393 1.125.95 1.477 1.67.357.721.539 1.532.544 2.435v.422c0 .914-.172 1.731-.518 2.452a3.983 3.983 0 01-1.477 1.687c-.632.405-1.35.607-2.153.607-.803 0-1.523-.199-2.162-.598-.633-.398-1.125-.955-1.477-1.67-.351-.72-.53-1.529-.536-2.426v-.421zm.475.369c0 .791.155 1.517.466 2.179.316.657.752 1.169 1.31 1.538.562.37 1.203.554 1.924.554 1.084 0 1.966-.407 2.646-1.222.685-.814 1.028-1.863 1.028-3.146v-.272c0-.78-.158-1.5-.475-2.163-.316-.662-.756-1.177-1.318-1.546a3.32 3.32 0 00-1.899-.563c-1.084 0-1.968.413-2.654 1.239-.685.826-1.028 1.867-1.028 3.12v.282zm21.735-.097c0 1.482-.319 2.66-.958 3.533-.639.873-1.509 1.31-2.61 1.31-.721 0-1.363-.147-1.925-.44a3.296 3.296 0 01-1.318-1.213v5.133h-.475V267.49h.475v1.697a3.482 3.482 0 011.327-1.389c.556-.322 1.189-.484 1.898-.484 1.113 0 1.989.428 2.628 1.284.639.849.958 2.045.958 3.586v.149zm-.483-.185c0-1.365-.273-2.431-.818-3.199-.539-.773-1.298-1.16-2.276-1.16-.797 0-1.474.208-2.03.624-.557.41-.958 1.002-1.204 1.775v4.448c.246.656.647 1.166 1.204 1.529.562.357 1.245.536 2.048.536.972 0 1.728-.387 2.267-1.16.539-.773.809-1.904.809-3.393zM114.71 277v-1.538a3.132 3.132 0 01-1.231 1.257c-.539.304-1.221.457-2.047.457-1.037 0-1.817-.302-2.338-.905-.516-.61-.78-1.495-.791-2.655v-6.126h.474v6.144c.012 1.008.241 1.772.686 2.294.445.515 1.096.773 1.951.773.908 0 1.647-.214 2.215-.641.568-.428.929-1.055 1.081-1.881v-6.689h.483V277h-.483zm6.908.176a3.87 3.87 0 01-2.118-.615 4.292 4.292 0 01-1.503-1.706c-.363-.72-.545-1.52-.545-2.399v-.395c0-.879.176-1.685.527-2.417.352-.733.835-1.304 1.451-1.714a3.556 3.556 0 012.012-.616c1.061 0 1.928.378 2.602 1.134.674.756 1.011 1.749 1.011 2.98v.501h-7.128v.518c0 .774.161 1.491.483 2.154a3.897 3.897 0 001.345 1.546 3.342 3.342 0 001.863.563c.639 0 1.181-.106 1.626-.316.451-.217.85-.548 1.195-.994l.334.238c-.709 1.025-1.76 1.538-3.155 1.538zm-.176-9.387c-.925 0-1.711.346-2.355 1.037-.645.686-1.023 1.562-1.134 2.628h6.627v-.114c0-.645-.138-1.242-.413-1.793a3.08 3.08 0 00-1.125-1.292 2.856 2.856 0 00-1.6-.466zm5.388 4.359c0-1.517.319-2.701.958-3.55.639-.856 1.515-1.284 2.628-1.284.715 0 1.345.162 1.89.484.55.322.996.803 1.336 1.441V263.5h.474V277h-.474v-1.521c-.323.54-.765.959-1.328 1.257-.562.293-1.201.44-1.916.44-1.101 0-1.971-.437-2.61-1.31-.639-.873-.958-2.071-.958-3.595v-.123zm.492.185c0 1.348.267 2.414.8 3.199.533.78 1.289 1.169 2.268 1.169.785 0 1.456-.173 2.012-.518.557-.352.97-.865 1.24-1.538v-4.457c-.545-1.599-1.623-2.399-3.235-2.399-.972 0-1.731.384-2.276 1.151-.539.768-.809 1.899-.809 3.393zm13.228 4.843a3.866 3.866 0 01-2.118-.615 4.292 4.292 0 01-1.503-1.706c-.364-.72-.545-1.52-.545-2.399v-.395c0-.879.176-1.685.527-2.417.352-.733.835-1.304 1.45-1.714a3.56 3.56 0 012.013-.616c1.061 0 1.928.378 2.602 1.134.673.756 1.01 1.749 1.01 2.98v.501h-7.128v.518c0 .774.162 1.491.484 2.154a3.889 3.889 0 001.345 1.546 3.342 3.342 0 001.863.563c.638 0 1.18-.106 1.626-.316a3.354 3.354 0 001.195-.994l.334.238c-.709 1.025-1.761 1.538-3.155 1.538zm-.176-9.387c-.926 0-1.711.346-2.355 1.037-.645.686-1.023 1.562-1.134 2.628h6.627v-.114c0-.645-.138-1.242-.413-1.793a3.08 3.08 0 00-1.125-1.292 2.856 2.856 0 00-1.6-.466zm11.689 6.882c0-1.154-.984-1.94-2.953-2.356-1.183-.252-2.006-.574-2.469-.966-.463-.399-.695-.944-.695-1.635 0-.697.293-1.272.879-1.723.592-.451 1.36-.677 2.303-.677 1.025 0 1.849.247 2.47.739.621.486.931 1.145.931 1.977h-.483c0-.638-.27-1.172-.809-1.599-.539-.428-1.242-.642-2.109-.642-.832 0-1.491.182-1.978.545-.486.363-.729.817-.729 1.362 0 .428.091.765.272 1.011.182.24.478.46.888.659.41.194 1.008.381 1.793.563.785.181 1.406.395 1.863.641.457.246.788.539.993.879.206.334.308.744.308 1.231 0 .75-.308 1.353-.923 1.81-.615.457-1.421.686-2.417.686-1.066 0-1.927-.24-2.584-.721-.65-.486-.975-1.11-.975-1.872h.474c.047.668.34 1.189.879 1.564.545.37 1.28.554 2.206.554.85 0 1.538-.196 2.066-.589.533-.398.799-.879.799-1.441zm10.635 2.03c.862 0 1.571-.228 2.127-.685.563-.457.87-1.09.923-1.899h.475c-.047.92-.402 1.661-1.064 2.224-.662.556-1.482.835-2.461.835-1.189 0-2.136-.431-2.839-1.292-.697-.862-1.046-2.03-1.046-3.507v-.316c0-1.442.349-2.593 1.046-3.455.703-.861 1.644-1.292 2.822-1.292 1.007 0 1.84.302 2.496.906.656.603 1.005 1.406 1.046 2.408h-.475c-.041-.856-.343-1.541-.905-2.057-.557-.521-1.278-.782-2.162-.782-1.061 0-1.893.384-2.496 1.151-.598.762-.897 1.823-.897 3.182v.308c0 1.33.302 2.376.905 3.137.61.756 1.445 1.134 2.505 1.134zm5.195-4.64c0-.909.172-1.723.518-2.444.352-.726.844-1.292 1.477-1.696.638-.404 1.359-.607 2.162-.607.797 0 1.512.197 2.144.589.633.393 1.125.95 1.477 1.67.357.721.539 1.532.545 2.435v.422c0 .914-.173 1.731-.519 2.452a3.981 3.981 0 01-1.476 1.687c-.633.405-1.351.607-2.154.607-.802 0-1.523-.199-2.162-.598-.633-.398-1.125-.955-1.476-1.67-.352-.72-.531-1.529-.536-2.426v-.421zm.474.369c0 .791.155 1.517.466 2.179.316.657.753 1.169 1.31 1.538.562.37 1.204.554 1.924.554 1.084 0 1.966-.407 2.646-1.222.685-.814 1.028-1.863 1.028-3.146v-.272c0-.78-.158-1.5-.474-2.163-.317-.662-.756-1.177-1.319-1.546a3.316 3.316 0 00-1.898-.563c-1.084 0-1.969.413-2.654 1.239-.686.826-1.029 1.867-1.029 3.12v.282zm10.635-2.725c.31-.738.768-1.321 1.371-1.749a3.388 3.388 0 012.004-.642c1.019 0 1.775.29 2.268.871.498.574.75 1.444.755 2.61V277h-.474v-6.223c-.006-1.019-.214-1.772-.624-2.258-.41-.493-1.061-.739-1.951-.739-.821 0-1.533.293-2.136.879-.598.58-1.002 1.33-1.213 2.25V277h-.475v-9.51h.475v2.215zm8.947 2.443c0-1.517.32-2.701.958-3.55.639-.856 1.515-1.284 2.628-1.284.715 0 1.345.162 1.89.484.551.322.996.803 1.336 1.441V263.5h.474V277h-.474v-1.521c-.323.54-.765.959-1.327 1.257-.563.293-1.202.44-1.916.44-1.102 0-1.972-.437-2.611-1.31-.638-.873-.958-2.071-.958-3.595v-.123zm.492.185c0 1.348.267 2.414.8 3.199.533.78 1.289 1.169 2.268 1.169.785 0 1.456-.173 2.012-.518.557-.352.97-.865 1.24-1.538v-4.457c-.545-1.599-1.623-2.399-3.235-2.399-.972 0-1.731.384-2.276 1.151-.539.768-.809 1.899-.809 3.393zM204.622 277v-1.538a3.136 3.136 0 01-1.23 1.257c-.539.304-1.222.457-2.048.457-1.037 0-1.817-.302-2.338-.905-.516-.61-.779-1.495-.791-2.655v-6.126h.474v6.144c.012 1.008.241 1.772.686 2.294.445.515 1.096.773 1.951.773.908 0 1.647-.214 2.215-.641.568-.428.929-1.055 1.081-1.881v-6.689h.483V277h-.483zm6.715-.299c.861 0 1.57-.228 2.127-.685.562-.457.87-1.09.923-1.899h.474c-.047.92-.401 1.661-1.063 2.224-.662.556-1.483.835-2.461.835-1.19 0-2.136-.431-2.839-1.292-.697-.862-1.046-2.03-1.046-3.507v-.316c0-1.442.349-2.593 1.046-3.455.703-.861 1.644-1.292 2.821-1.292 1.008 0 1.84.302 2.496.906.657.603 1.005 1.406 1.046 2.408h-.474c-.041-.856-.343-1.541-.906-2.057-.556-.521-1.277-.782-2.162-.782-1.06 0-1.892.384-2.496 1.151-.597.762-.896 1.823-.896 3.182v.308c0 1.33.302 2.376.905 3.137.609.756 1.444 1.134 2.505 1.134zm6.504.299h-.475v-9.51h.475V277zm-.721-12.48c0-.135.047-.249.141-.343.093-.1.208-.15.343-.15a.45.45 0 01.342.15c.1.094.15.208.15.343a.45.45 0 01-.15.342.464.464 0 01-.342.141.465.465 0 01-.343-.141.464.464 0 01-.141-.342zm8.033 3.313l-.615-.053c-.809 0-1.485.264-2.03.791-.545.522-.903 1.254-1.072 2.198V277h-.475v-9.51h.475v1.978c.257-.662.644-1.187 1.16-1.573.515-.387 1.163-.581 1.942-.581.275 0 .498.033.668.097l-.053.422zM236.192 277h-.474v-13.5h.474V277zm2.4-4.939c0-.909.173-1.723.518-2.444.352-.726.844-1.292 1.477-1.696a3.96 3.96 0 012.162-.607c.797 0 1.512.197 2.145.589.632.393 1.125.95 1.476 1.67.358.721.539 1.532.545 2.435v.422c0 .914-.173 1.731-.519 2.452a3.975 3.975 0 01-1.476 1.687c-.633.405-1.351.607-2.153.607-.803 0-1.524-.199-2.163-.598-.632-.398-1.125-.955-1.476-1.67-.352-.72-.53-1.529-.536-2.426v-.421zm.474.369c0 .791.156 1.517.466 2.179.317.657.753 1.169 1.31 1.538.562.37 1.204.554 1.925.554 1.084 0 1.965-.407 2.645-1.222.686-.814 1.028-1.863 1.028-3.146v-.272c0-.78-.158-1.5-.474-2.163-.317-.662-.756-1.177-1.319-1.546a3.316 3.316 0 00-1.898-.563c-1.084 0-1.969.413-2.654 1.239-.686.826-1.029 1.867-1.029 3.12v.282zm16.023 2.241c0-1.154-.985-1.94-2.953-2.356-1.184-.252-2.007-.574-2.47-.966-.463-.399-.694-.944-.694-1.635 0-.697.293-1.272.879-1.723.591-.451 1.359-.677 2.302-.677 1.026 0 1.849.247 2.47.739.621.486.932 1.145.932 1.977h-.484c0-.638-.269-1.172-.808-1.599-.539-.428-1.242-.642-2.11-.642-.832 0-1.491.182-1.977.545-.487.363-.73.817-.73 1.362 0 .428.091.765.273 1.011.181.24.477.46.887.659.411.194 1.008.381 1.793.563.786.181 1.407.395 1.864.641.457.246.788.539.993.879.205.334.307.744.307 1.231 0 .75-.307 1.353-.922 1.81-.616.457-1.421.686-2.417.686-1.067 0-1.928-.24-2.584-.721-.651-.486-.976-1.11-.976-1.872h.475c.047.668.34 1.189.879 1.564.544.37 1.28.554 2.206.554.849 0 1.538-.196 2.065-.589.533-.398.8-.879.8-1.441zm6.97-2.523c0-1.517.319-2.701.958-3.55.638-.856 1.514-1.284 2.628-1.284.714 0 1.344.162 1.889.484.551.322.996.803 1.336 1.441V263.5h.475V277h-.475v-1.521c-.322.54-.765.959-1.327 1.257-.563.293-1.201.44-1.916.44-1.102 0-1.972-.437-2.61-1.31-.639-.873-.958-2.071-.958-3.595v-.123zm.492.185c0 1.348.266 2.414.8 3.199.533.78 1.289 1.169 2.267 1.169.785 0 1.456-.173 2.013-.518.557-.352.97-.865 1.239-1.538v-4.457c-.545-1.599-1.623-2.399-3.234-2.399-.973 0-1.732.384-2.277 1.151-.539.768-.808 1.899-.808 3.393zM272.948 277h-.474v-9.51h.474V277zm-.72-12.48c0-.135.046-.249.14-.343.094-.1.208-.15.343-.15.135 0 .249.05.343.15a.455.455 0 01.149.343c0 .134-.05.249-.149.342a.466.466 0 01-.343.141.466.466 0 01-.343-.141.463.463 0 01-.14-.342zm9.984 12.48c-.117-.404-.176-.984-.176-1.74a3.82 3.82 0 01-1.538 1.415c-.65.334-1.386.501-2.206.501-.879 0-1.588-.238-2.127-.712-.533-.481-.8-1.105-.8-1.872 0-.873.393-1.571 1.178-2.092.791-.527 1.84-.797 3.146-.809h2.347v-1.388c0-.797-.252-1.415-.756-1.855-.498-.439-1.213-.659-2.144-.659-.867 0-1.591.223-2.171.668-.58.445-.87.996-.87 1.652l-.475-.017c0-.774.34-1.43 1.02-1.969.679-.539 1.511-.809 2.496-.809 1.025 0 1.84.258 2.443.774.604.51.914 1.23.932 2.162v4.544c0 1.043.082 1.752.246 2.127V277h-.545zm-3.92-.29c.891 0 1.655-.199 2.294-.598a3.694 3.694 0 001.45-1.678v-2.259h-2.197c-1.36 0-2.4.269-3.12.808-.586.44-.879.988-.879 1.644 0 .58.231 1.072.694 1.477.463.404 1.049.606 1.758.606zm13.148-2.039c0-1.154-.984-1.94-2.953-2.356-1.183-.252-2.007-.574-2.469-.966-.463-.399-.695-.944-.695-1.635 0-.697.293-1.272.879-1.723.592-.451 1.36-.677 2.303-.677 1.025 0 1.849.247 2.47.739.621.486.931 1.145.931 1.977h-.483c0-.638-.27-1.172-.809-1.599-.539-.428-1.242-.642-2.109-.642-.832 0-1.491.182-1.978.545-.486.363-.729.817-.729 1.362 0 .428.091.765.272 1.011.182.24.478.46.888.659.41.194 1.008.381 1.793.563.785.181 1.406.395 1.863.641.457.246.788.539.993.879.205.334.308.744.308 1.231 0 .75-.308 1.353-.923 1.81-.615.457-1.421.686-2.417.686-1.066 0-1.928-.24-2.584-.721-.65-.486-.975-1.11-.975-1.872h.474c.047.668.34 1.189.879 1.564.545.37 1.28.554 2.206.554.85 0 1.538-.196 2.066-.589.533-.398.799-.879.799-1.441zm6.953 1.898c0-.134.046-.249.14-.342.094-.1.208-.15.343-.15.135 0 .249.05.343.15a.453.453 0 01.149.342c0 .135-.05.249-.149.343a.466.466 0 01-.343.141.466.466 0 01-.343-.141.465.465 0 01-.14-.343zm.044-8.455c0-.135.046-.249.14-.343a.455.455 0 01.343-.149c.135 0 .249.05.343.149a.455.455 0 01.149.343c0 .135-.05.249-.149.343a.466.466 0 01-.343.141.466.466 0 01-.343-.141.465.465 0 01-.14-.343z" fill="#000"/>
    <path d="M113.037 317.406l5.713 17.807 5.695-17.807h8.121V343h-6.187v-5.977l.598-12.234L120.789 343h-4.078l-6.205-18.229.598 12.252V343h-6.17v-25.594h8.103zM142.48 343h-5.941v-19.02h5.941V343zm-6.292-23.924c0-.844.304-1.535.914-2.074.609-.539 1.4-.809 2.373-.809.972 0 1.763.27 2.373.809.609.539.914 1.23.914 2.074 0 .844-.305 1.535-.914 2.074-.61.539-1.401.809-2.373.809-.973 0-1.764-.27-2.373-.809-.61-.539-.914-1.23-.914-2.074zm19.16 24.276c-2.918 0-5.28-.868-7.084-2.602-1.805-1.746-2.707-4.014-2.707-6.803v-.492c0-1.945.357-3.662 1.072-5.15.726-1.489 1.781-2.637 3.164-3.446 1.383-.82 3.023-1.23 4.922-1.23 2.672 0 4.781.832 6.328 2.496 1.547 1.652 2.32 3.961 2.32 6.926v2.303h-11.777c.211 1.066.674 1.904 1.389 2.513.714.61 1.64.914 2.777.914 1.875 0 3.34-.656 4.394-1.969l2.708 3.2c-.739 1.019-1.788 1.834-3.147 2.443-1.348.598-2.801.897-4.359.897zm-.668-15.153c-1.735 0-2.766 1.149-3.094 3.446h5.976v-.457c.024-.95-.216-1.682-.72-2.198-.504-.527-1.225-.791-2.162-.791zm22.588 1.143l-1.952-.141c-1.863 0-3.058.586-3.586 1.758V343h-5.923v-19.02h5.554l.194 2.444c.996-1.863 2.384-2.795 4.166-2.795.633 0 1.183.07 1.652.211l-.105 5.502zm9.826 9.439c.832 0 1.476-.222 1.933-.668.457-.457.68-1.09.668-1.898h5.555c0 2.086-.75 3.797-2.25 5.133-1.488 1.336-3.41 2.004-5.766 2.004-2.765 0-4.945-.868-6.539-2.602-1.593-1.734-2.39-4.137-2.39-7.207v-.246c0-1.922.351-3.615 1.054-5.08.715-1.477 1.741-2.608 3.077-3.393 1.335-.797 2.918-1.195 4.746-1.195 2.472 0 4.435.685 5.888 2.057 1.453 1.371 2.18 3.228 2.18 5.572h-5.555c0-.985-.24-1.74-.72-2.268-.481-.527-1.125-.791-1.934-.791-1.535 0-2.432.979-2.689 2.936-.082.621-.123 1.476-.123 2.566 0 1.91.228 3.235.685 3.973.457.738 1.184 1.107 2.18 1.107zm9.914-5.467c0-1.898.369-3.585 1.107-5.062.739-1.488 1.799-2.631 3.182-3.428 1.383-.797 3.006-1.195 4.869-1.195 2.848 0 5.092.885 6.732 2.654 1.641 1.758 2.461 4.155 2.461 7.19v.211c0 2.964-.826 5.32-2.478 7.066-1.641 1.734-3.867 2.602-6.68 2.602-2.707 0-4.881-.809-6.521-2.426-1.641-1.629-2.526-3.832-2.655-6.61l-.017-1.002zm5.924.37c0 1.757.275 3.046.826 3.867.551.82 1.365 1.23 2.443 1.23 2.11 0 3.188-1.623 3.235-4.869v-.598c0-3.41-1.09-5.115-3.27-5.115-1.98 0-3.053 1.471-3.217 4.412l-.017 1.073zM224.219 343h-5.942v-27h5.942v27zm12.867.352c-2.918 0-5.279-.868-7.084-2.602-1.805-1.746-2.707-4.014-2.707-6.803v-.492c0-1.945.357-3.662 1.072-5.15.727-1.489 1.781-2.637 3.164-3.446 1.383-.82 3.024-1.23 4.922-1.23 2.672 0 4.781.832 6.328 2.496 1.547 1.652 2.321 3.961 2.321 6.926v2.303h-11.778c.211 1.066.674 1.904 1.389 2.513.715.61 1.641.914 2.777.914 1.875 0 3.34-.656 4.395-1.969l2.707 3.2c-.738 1.019-1.787 1.834-3.147 2.443-1.347.598-2.8.897-4.359.897zm-.668-15.153c-1.734 0-2.766 1.149-3.094 3.446h5.977v-.457c.023-.95-.217-1.682-.721-2.198-.504-.527-1.225-.791-2.162-.791zm21.041 9.457c0-.504-.264-.908-.791-1.213-.527-.304-1.529-.621-3.006-.949-1.476-.328-2.695-.756-3.656-1.283-.961-.539-1.694-1.19-2.197-1.951-.504-.762-.756-1.635-.756-2.619 0-1.746.72-3.182 2.162-4.307 1.441-1.137 3.328-1.705 5.66-1.705 2.508 0 4.523.568 6.047 1.705 1.523 1.137 2.285 2.631 2.285 4.482h-5.941c0-1.523-.803-2.285-2.409-2.285-.621 0-1.142.176-1.564.528-.422.339-.633.767-.633 1.283 0 .527.258.955.774 1.283.515.328 1.336.598 2.461.809 1.136.211 2.132.462 2.988.755 2.859.985 4.289 2.749 4.289 5.291 0 1.735-.774 3.147-2.32 4.237-1.536 1.09-3.528 1.635-5.977 1.635-1.629 0-3.082-.293-4.359-.879-1.278-.586-2.274-1.383-2.989-2.391-.715-1.008-1.072-2.068-1.072-3.182h5.537c.024.879.317 1.524.879 1.934.563.398 1.283.598 2.162.598.809 0 1.412-.164 1.811-.493.41-.328.615-.755.615-1.283zm25.066-2.953l3.164-10.723h6.346l-7.752 22.202-.334.808c-1.101 2.461-3.047 3.692-5.836 3.692a9.264 9.264 0 01-2.443-.352v-4.236h.773c.832 0 1.465-.123 1.899-.369.445-.235.773-.663.984-1.284l.475-1.265-6.61-19.196h6.329l3.005 10.723zM302.828 343v-25.594h8.244c2.262 0 4.295.516 6.1 1.547 1.805 1.02 3.211 2.467 4.219 4.342 1.019 1.863 1.535 3.955 1.547 6.275v1.178c0 2.344-.499 4.447-1.495 6.311a10.86 10.86 0 01-4.183 4.359c-1.793 1.043-3.797 1.57-6.012 1.582h-8.42zm6.17-20.83v16.084h2.145c1.769 0 3.128-.627 4.078-1.881.949-1.266 1.424-3.141 1.424-5.625v-1.107c0-2.473-.475-4.336-1.424-5.59-.95-1.254-2.332-1.881-4.149-1.881h-2.074zm16.084 11.144c0-1.898.369-3.585 1.107-5.062.739-1.488 1.799-2.631 3.182-3.428 1.383-.797 3.006-1.195 4.869-1.195 2.848 0 5.092.885 6.733 2.654 1.64 1.758 2.461 4.155 2.461 7.19v.211c0 2.964-.827 5.32-2.479 7.066-1.641 1.734-3.867 2.602-6.68 2.602-2.707 0-4.88-.809-6.521-2.426-1.641-1.629-2.525-3.832-2.654-6.61l-.018-1.002zm5.924.37c0 1.757.275 3.046.826 3.867.551.82 1.365 1.23 2.443 1.23 2.11 0 3.188-1.623 3.235-4.869v-.598c0-3.41-1.09-5.115-3.27-5.115-1.98 0-3.052 1.471-3.217 4.412l-.017 1.073zm20.637-9.704l.193 2.233c1.348-1.723 3.158-2.584 5.432-2.584 2.402 0 4.025.955 4.869 2.865 1.289-1.91 3.152-2.865 5.59-2.865 3.855 0 5.835 2.332 5.941 6.996V343h-5.941v-12.006c0-.973-.165-1.682-.493-2.127-.328-.445-.925-.668-1.793-.668-1.171 0-2.045.522-2.619 1.565l.018.246V343h-5.942v-11.971c0-.996-.158-1.717-.474-2.162-.317-.445-.92-.668-1.811-.668-1.136 0-2.004.522-2.601 1.565V343h-5.924v-19.02h5.555zM383.301 343h-5.942v-19.02h5.942V343zm-6.293-23.924c0-.844.304-1.535.914-2.074.609-.539 1.4-.809 2.373-.809.973 0 1.764.27 2.373.809.609.539.914 1.23.914 2.074 0 .844-.305 1.535-.914 2.074-.609.539-1.4.809-2.373.809-.973 0-1.764-.27-2.373-.809-.61-.539-.914-1.23-.914-2.074zm15.398 4.904l.194 2.233c1.312-1.723 3.123-2.584 5.431-2.584 1.981 0 3.457.592 4.43 1.775.984 1.184 1.494 2.965 1.529 5.344V343h-5.941v-12.006c0-.961-.194-1.664-.58-2.109-.387-.457-1.09-.686-2.11-.686-1.16 0-2.021.457-2.584 1.371V343h-5.923v-19.02h5.554zm14.186 9.37c0-1.922.316-3.621.949-5.098.633-1.477 1.541-2.613 2.725-3.41 1.183-.809 2.56-1.213 4.13-1.213 1.981 0 3.528.668 4.641 2.004l.211-1.653h5.379v18.299c0 1.676-.393 3.129-1.178 4.36-.773 1.242-1.898 2.191-3.375 2.847-1.476.668-3.187 1.002-5.133 1.002-1.394 0-2.748-.263-4.06-.791-1.301-.527-2.297-1.213-2.988-2.056l2.478-3.481c1.102 1.301 2.555 1.951 4.359 1.951 2.625 0 3.938-1.347 3.938-4.043v-.597c-1.137 1.254-2.572 1.881-4.307 1.881-2.32 0-4.195-.885-5.625-2.655-1.429-1.781-2.144-4.16-2.144-7.136v-.211zm5.941.369c0 1.558.293 2.795.879 3.709.586.902 1.406 1.353 2.461 1.353 1.277 0 2.209-.427 2.795-1.283V329.5c-.574-.867-1.494-1.301-2.76-1.301-1.054 0-1.881.475-2.478 1.424-.598.938-.897 2.303-.897 4.096zm14.713-.405c0-1.898.369-3.585 1.108-5.062.738-1.488 1.798-2.631 3.181-3.428 1.383-.797 3.006-1.195 4.869-1.195 2.848 0 5.092.885 6.733 2.654 1.64 1.758 2.461 4.155 2.461 7.19v.211c0 2.964-.827 5.32-2.479 7.066-1.64 1.734-3.867 2.602-6.68 2.602-2.707 0-4.88-.809-6.521-2.426-1.641-1.629-2.525-3.832-2.654-6.61l-.018-1.002zm5.924.37c0 1.757.275 3.046.826 3.867.551.82 1.365 1.23 2.443 1.23 2.11 0 3.188-1.623 3.235-4.869v-.598c0-3.41-1.09-5.115-3.27-5.115-1.98 0-3.052 1.471-3.216 4.412l-.018 1.073z" fill="red"/>
  </g>
  <defs>
    <clipPath id="clip0">
      <path fill="#fff" d="M0 0h546v399H0z"/>
    </clipPath>
    <clipPath id="clip1">
      <path fill="#fff" d="M65 0h415v275H65z"/>
    </clipPath>
  </defs>
</svg>
